<svg id="レイヤー_1" data-name="レイヤー 1" xmlns="http://www.w3.org/2000/svg" viewBox="0 0 556 611.17"><path d="M95.56,267.78c3.62,7.32,7.25,14.15,12.43,20.5,4.67,5.86,6.74,12.69,8.3,19.53,9.84,35.63,19.69,76.15,29,111.79,2.59,11.23,5.19,22.45,9.33,35.63,4.15-11.22,5.19-21,6.74-30.75,2.59-15.14,3.63-30.27,6.74-44.91,3.11-16.6,6.22-33.2,10.36-49.31,3.11-13.67,5.19-29.78,11.93-42.47,3.62-6.34,9.32-11.72,16.58-10.25L219.43,280c3.11.49,5.18-14.19,7.77-12.23,4.4,1,4.4-8.42,4.4-10,0-.49-4.17-20.94-3.14-21.91,2.6,1,6.27,10.95,11,15.65,3.13,1.56,3.79,6.56,6.38,7.53,1.56.49,12,17.61,13.54,18.1,18.14,5.37,25.44,25.3,26,39.45,0,2-.52,3.91-.52,5.37,2.59,25.39-2.08,50.77-2.59,75.67,0,20,.51,40.52,2.59,60.53,2.07,16.6,2.07,34.17,4.14,50.77,2.6,22-2.61,43.94-1.57,65.91.52,9.27-.54,18.06-1.06,27.33-1,10.25.53,19.58-10.87,17.14-2.59,1.46-2.61,1.18-3.13,3.13-2.07,3.9-10.36,2.19-15,1.21-11.41-1.46-35.65,10.42-44.46,5.05-10.36-6.35.9-32.87.9-42.15-.52-14.16-1.56-27.82,0-42,1-8.79,0-17.09-1-25.39-3.11-30.75-2.59-61-5.18-91.77-2.59-28.8-2.07-57.61-6.22-86.41l-1.56-3.9c-4.14,5.85-2.57,11.71-4.12,17.08-3.63,12.21-8.81,24.41-11.41,36.62-5.18,24.89-11.4,49.3-11.4,74.69,0,5.36-1.55,10.73-2.07,16.59-1,8.3-5.18,16.6-1.56,24.9,3.11,8.3-4.14,12.69-7.77,18.06-1,2-3.63,1-5.18,0-3.11-1-6.22-2.93-9.85-2.44-1,3.42-1,6.35,4.15,6.35,5.18.48,6.73,7.32,9.33,10.25-2.08,2.93-4.15,2.44-7.26,2.93-8.81,1-19.18.49-22.29-3.42-4.15-4.88-5.18-4.39-10.88-7.32-8.81-4.88-14.52-13.18-18.14-22-12.44-29.78-24.36-60-33.69-90.8-4.67-16.6-9.33-33.68-14.52-50.28a124.55,124.55,0,0,0-5.7-16.6c2.08,9.76-3.11,19-1,28.8,2.07,11.72,0,23.44.51,35.64,1,19.53.52,40,2.08,59.56,1.55,17.08,2.59,34.17,5.18,50.77,1.56,9.76,3.11,19.52,2.07,29.29-1.55,16.11,7.84,29.57,8.36,45.68.52,2.44-5.74,1.75-7.3,4.2-4.15,5.36-4.64,31.38-12.42,27.48-2.07,1-7.81-14.88-10.92-14.39-.52-1-2.08-1.46-2.08-2.93L30.25,588.5l1-56.62a339.89,339.89,0,0,0-2.6-51.26c-3.62-35.15-4.14-70.79-3.11-105.93.52-24.9-.51-54.68,0-80.06.52-3.42,0-7.33-.51-10.74-.52-3.91,2.07-5.86,5.7-7.33a25.53,25.53,0,0,1,17.1.49c3.63-1.46,3.63-4.88,5.7-6.83,7.26-6.84,8.3-7.81,18.14-3.91,5.7,1.95,11.92,4.4,14.52,11.23A2.92,2.92,0,0,0,89.85,279c1-4.39-1-9.27,1.56-13.18C94,265.34,95,266.31,95.56,267.78ZM243.79,396.16c4.67-9.76,1-25.87-4.17-31.73C249.62,342.79,244.79,417.81,243.79,396.16Z" transform="translate(-25 -23)"/><path d="M228.16,620.1a74.86,74.86,0,0,1,11.18-1.7c3.61-.26,10-.66,12.95-1.18,2.7-.17,4.85-.35,6.44-.52q24-1.32,30.31-4a19.68,19.68,0,0,0,9.65-8.43q8.81-17.67,11.18-27.68a67.73,67.73,0,0,1,1.7-7.85c.45-2.1,2.52-4.06,3-7.38,1.62-3.95,1.2-3.48,1.42-5.23a153,153,0,0,1,4.75-19.77,250.62,250.62,0,0,0,6.44-28.94,116.57,116.57,0,0,1,2-11.52q7.44-28,10.51-43.21c8.81-42.42,15.24-63.92,19.32-77q2-14.93,7.8-39.81l.67-13a8.58,8.58,0,0,0-4.08-7.26q-7.83-5.46-24.83-7.27a268.43,268.43,0,0,0-26.87-1.82l-4.09.27L301.85,305a46.79,46.79,0,0,1-.34-4.71l.34-2.88q20.75-.53,23.13-.52,46.26,0,62.26.52,11.17.27,18,.26,7.46,0,24.07-.44,10.85-.35,16.27-.34c33.9,0,41.75,1.21,54.86,3.65q26.77,4.71,41.69,14.9c14.69,10.12,21.56,19.49,26.87,28.11s8,19.13,8,31.5a42.21,42.21,0,0,1-5.26,19.87c-3.51,6.62-10,12.9-17.66,19.35-2.49,2.09-14.75,11.45-23.48,14.08-3.39,1.58-7.32,2.43-12.52,4.7l-29.91,8.67q24.43,3.94,41.4,12.06a79.86,79.86,0,0,0,10.18,3.94c3.16,2.1,6.22,4,9.16,5.64s5.65,6.41,8.14,8c6.11,5.59,7.28,7.36,9.77,11.55l5.43,8.13q2.37,3.68,5.6,16.78A99.48,99.48,0,0,1,581,531.15a64.69,64.69,0,0,1-.68,11.54l-7.12,17c-6.67,17.32-17.86,30.78-23.73,37.34S533.09,608.49,518,617.92c-17.16,4.52-15.59,6.08-35.94,7.65-6.55,1.92-14.1,1.79-32.86,1.56h-2.54a12,12,0,0,0-4.47.81,18.17,18.17,0,0,1-5.51.76H428.8c-3.13,0-5.75.3-10.05.3q-13.56,0-56.95-2.09-15.93-.52-25.08-2.36l-28.82-.78-4.06.26L289.6,625.6l-10.85-.52-20,1.83A186.66,186.66,0,0,1,233.24,629c-1.8,0-3.84-.09-6.1-.26ZM387.58,458.5q-1.72,13.9-12,48.52-3.07,9.71-8.23,39.34c-9.15,30.77-13.73,41.14-13.73,49.88q0,12.6,8,17.18T409.3,618c21.51,0,24.65-2.19,40.73-6.56q4.41-1.83,8.48-3.15c10.42-3.49,15.6-9.49,21.94-14,9.32-9.8,10.21-13.52,15.65-21.91,3.13-6.27,10-16.73,10.88-19.71q5.77-21,5.77-36.19a51.75,51.75,0,0,0-2.37-14.56,94,94,0,0,0-7.45-17.44c-5.88-5.41-7.31-9.62-10-12.27-1.57-1.57-1.57-3.13-7.83-7.83-5-1.22-7.6-5-11.89-6.39-2.93-.52-5.08-.87-6.43-1.05q-10.17-1.83-13.56-2.09l-5.36-.53-15.92.53H418.43l-29.82,1.83Zm10.9-14.67q38.86-.52,51.38-2.62c17.57-2.78,16.39-6.75,27.77-11.89s14.82-9.28,24.73-18.17c3.13-6.26,5.61-9.2,9.89-18.7s6.42-17.82,6.42-25a50.88,50.88,0,0,0-4.06-20.39c-1.82-4.18-6.91-9-11.87-17a51.74,51.74,0,0,0-16-16c-7.23-3-9.42-3.08-27.73-6.22l-6.1.27-11.13-.53q-11.19,0-18,4.45-4.41,3.39-6.1,13.33a322.08,322.08,0,0,1-10.25,50.44L397.19,414l-1.38,13.59a107.58,107.58,0,0,1-1.71,10.72l-.35,2.09C393.75,441.3,395.33,442.44,398.48,443.83Z" transform="translate(-25 -23)"/><path d="M37.39,611.54c36.44-29.28,30.58-13.76,40.5-6.14,17.74,13.62,32.31-1.73,54.6-2.76,3.37-.59,15.37.09,18.78,1.57,7.53,4,16.19,10.88,11,18.78,1.4,2,2.62,2.72,3.37,5.81-1.34.55-2,2.12-4,2.17l-37.81,2.42-78.43.78" transform="translate(-25 -23)"/><path d="M84.47,203c3.39-16.58,20.23-50.39,20.12-67.27,0-3.57,1-7.15,1.33-11,.66-5.52,3.42-11.06.94-16.56-2.14-5.51,2.74-8.46,5.17-12,.69-1.3,2.44-.66,3.5,0,2.1.64,4.21,1.92,6.66,1.58.68-2.27-2.91-13.6-6.41-13.58-2.75-.24-.65-15.48-2-27.06-.34-2.86,3.79-6.14,5.22-3.64,7.74,13.48,22.52,12.06,24,12.54,16.65,5.64-18.33,7.75-16.22,10.33,2.82,3.23,9.76,13.53,13.62,15.45,6,3.21,9.86,8.7,12.34,14.53,8.53,19.75,17.69,1.26,24.13,21.67,3.22,11,5.47,60.92,9,71.93,1.08,3.57-10.37,7.13-8.6,11-1.44-6.49,2-12.68.58-19.16-1.45-7.78-.11-15.58-.51-23.69-.79-13-10.33-53.73-11.47-66.7-1.12-11.36,0-1.57-3.13-11-4.43-13.28-12.38-24-6.26-26.61,9.89-4.23,2.33-10.29,1.91-21-.36-1.62,10-5.31,11.06-6.94,2.78-3.59,15.56-14.65,20.83-12.08,1.4-.66,5.34,9.86,7.44,9.52.35.64,1.41,1,1.41,1.94l1.17,18.17L199.84,91a222.47,222.47,0,0,0,2,34.07,421.07,421.07,0,0,0,12,64.17c6.35,24.33,17.83,35.7,22.27,56.36.48,2.25,21.94,39.3,22.31,41.57.36,2.6-42.07-5.48-44.51-4.49-4.2,1.32-20.57-20.89-24.08-22.17-2.44,1-2.42,3.27-3.82,4.57-4.87,4.58-5.56,5.23-12.23,2.68-3.86-1.28-8.07-2.87-9.85-7.4a2,2,0,0,0-2.45-1c-.68,2.92.74,6.16-1,8.77-1.74.33-2.45-.31-2.8-1.28a70.12,70.12,0,0,0-8.49-13.58c-3.18-3.88-4.61-8.41-5.69-13-6.8-23.65-13.63-50.55-20.09-74.21-1.8-7.45-3.6,7-6.45-1.74-2.75,7.48-3.41-7.94-4.42-1.44-1.68,10.08.81,23.28-1.22,33-2,11-11.12,35.2-16.17,48.48-3.76,9.89-23.13,16.46-45.43,18.9" transform="translate(-25 -23)"/><path d="M195.37,38c-13,1.86-21.8-1.73-27.36-2-15.09-.59-21.81,1.29-36.86,2.07-2.27.42-10.37,0-12.69-1-5.1-2.61-10.93-.93-7.43-6.2-1-1.35-1.79-1.8-2.31-3.85.9-.37,1.33-1.42,2.7-1.46l25.52-1.78,53-.85" transform="translate(-25 -23)"/></svg>