<?xml version="1.0" encoding="utf-8"?>
<!-- Generator: Adobe Illustrator 24.1.1, SVG Export Plug-In . SVG Version: 6.00 Build 0)  -->
<svg version="1.1" id="レイヤー_1" xmlns="http://www.w3.org/2000/svg" xmlns:xlink="http://www.w3.org/1999/xlink" x="0px"
	 y="0px" viewBox="0 0 220 220" style="enable-background:new 0 0 220 220;" xml:space="preserve">
<style type="text/css">
	.st0{fill:#FFFFFF;}
</style>
<g>
	<path d="M-768.94,119.28c3.63,7.32,7.26,14.16,12.44,20.5c4.66,5.86,6.74,12.69,8.29,19.53c9.85,35.64,19.7,76.15,29.03,111.79
		c2.59,11.23,5.18,22.46,9.33,35.64c4.15-11.23,5.18-20.99,6.74-30.75c2.59-15.13,3.63-30.27,6.74-44.91
		c3.11-16.6,6.22-33.2,10.37-49.31c3.11-13.67,5.18-29.78,11.92-42.47c3.63-6.35,9.33-11.72,16.59-10.25l12.44,2.44
		c3.11,0.49,5.18-14.19,7.77-12.23c4.39,0.98,4.39-8.41,4.39-9.98c0-0.49-4.17-20.94-3.13-21.91c2.59,0.98,6.26,10.96,10.96,15.65
		c3.13,1.57,3.79,6.56,6.38,7.54c1.56,0.49,11.98,17.6,13.54,18.09c18.14,5.37,25.44,25.3,25.96,39.46c0,1.95-0.52,3.9-0.52,5.37
		c2.59,25.38-2.07,50.77-2.59,75.67c0,20.02,0.52,40.52,2.59,60.53c2.07,16.6,2.07,34.17,4.15,50.77
		c2.59,21.97-2.61,43.93-1.58,65.9c0.52,9.27-0.54,18.06-1.06,27.34c-1.04,10.25,0.53,19.58-10.87,17.14
		c-2.59,1.46-2.61,1.18-3.13,3.13c-2.07,3.91-10.36,2.19-15.02,1.21c-11.4-1.46-35.64,10.42-44.45,5.05
		c-10.37-6.35,0.89-32.87,0.89-42.15c-0.52-14.16-1.55-27.83,0-41.98c1.04-8.79,0-17.09-1.04-25.38
		c-3.11-30.75-2.59-61.02-5.18-91.78c-2.59-28.8-2.07-57.6-6.22-86.41l-1.55-3.9c-4.15,5.86-2.57,11.72-4.13,17.09
		c-3.63,12.2-8.81,24.41-11.4,36.61c-5.18,24.9-11.4,49.31-11.4,74.69c0,5.37-1.56,10.74-2.07,16.6c-1.04,8.3-5.18,16.6-1.56,24.9
		c3.11,8.3-4.15,12.69-7.77,18.06c-1.04,1.95-3.63,0.98-5.18,0c-3.11-0.98-6.22-2.93-9.85-2.44c-1.04,3.42-1.04,6.35,4.15,6.35
		c5.18,0.49,6.74,7.32,9.33,10.25c-2.07,2.93-4.15,2.44-7.26,2.93c-8.81,0.98-19.18,0.49-22.29-3.42
		c-4.15-4.88-5.18-4.39-10.88-7.32c-8.81-4.88-14.51-13.18-18.14-21.97c-12.44-29.78-24.36-60.04-33.69-90.8
		c-4.66-16.6-9.33-33.68-14.51-50.28c-1.56-5.37-3.11-10.74-5.7-16.6c2.07,9.76-3.11,19.04-1.04,28.8c2.07,11.72,0,23.43,0.52,35.64
		c1.04,19.53,0.52,40.03,2.07,59.56c1.56,17.09,2.59,34.17,5.18,50.77c1.55,9.76,3.11,19.53,2.07,29.29
		c-1.56,16.11,7.84,29.58,8.35,45.69c0.52,2.44-5.74,1.75-7.3,4.19c-4.15,5.37-4.64,31.39-12.42,27.48
		c-2.07,0.98-7.81-14.88-10.92-14.39c-0.52-0.98-2.07-1.46-2.07-2.93l-1.56-27.34l1.04-56.63c0.52-17.08-0.52-34.17-2.59-51.26
		c-3.63-35.15-4.15-70.78-3.11-105.93c0.52-24.9-0.52-54.67,0-80.06c0.52-3.42,0-7.32-0.52-10.74c-0.52-3.91,2.07-5.86,5.7-7.32
		c6.22-1.95,11.92-1.46,17.1,0.49c3.63-1.46,3.63-4.88,5.7-6.84c7.26-6.83,8.29-7.81,18.14-3.91c5.7,1.95,11.92,4.39,14.51,11.23
		c0.52,0.98,1.56,1.95,3.63,1.46c1.04-4.39-1.04-9.27,1.56-13.18C-770.5,116.84-769.46,117.81-768.94,119.28z M-620.71,247.66
		c4.67-9.76,1.02-25.87-4.17-31.73C-614.88,194.29-619.71,269.31-620.71,247.66z"/>
</g>
<g>
	<path d="M-636.34,471.6c3.84-0.87,7.56-1.44,11.18-1.7c3.61-0.26,10.02-0.65,12.96-1.18c2.7-0.17,4.85-0.35,6.44-0.52
		c16.03-0.88,26.13-2.19,30.31-3.95c4.18-1.76,7.4-4.57,9.65-8.44c5.87-11.77,9.6-21,11.18-27.68c0.68-3.84,1.24-6.46,1.7-7.86
		c0.45-2.09,2.53-4.06,2.98-7.38c1.63-3.95,1.2-3.48,1.43-5.23c0.68-4.71,2.26-11.3,4.75-19.77c2.48-8.47,4.63-18.11,6.44-28.94
		c0.9-6.11,1.58-9.95,2.04-11.52c4.97-18.68,8.47-33.08,10.51-43.21c8.81-42.42,15.25-63.92,19.32-77.01
		c1.36-9.95,3.95-23.22,7.8-39.8l0.68-12.98c0-2.94-1.36-5.36-4.08-7.27c-5.22-3.63-13.49-6.06-24.83-7.27
		c-11.34-1.21-20.3-1.82-26.88-1.82l-4.08,0.26l-5.78-1.83c-0.23-2.09-0.34-3.67-0.34-4.71l0.34-2.88
		c13.83-0.35,21.54-0.52,23.13-0.52c30.84,0,51.59,0.18,62.26,0.52c7.46,0.18,13.45,0.26,17.96,0.26c4.97,0,13-0.14,24.07-0.44
		c7.23-0.23,12.66-0.35,16.27-0.35c33.9,0,41.75,1.22,54.86,3.66c17.85,3.14,31.74,8.11,41.69,14.9
		c14.69,10.11,21.56,19.48,26.87,28.11c5.31,8.63,7.97,19.13,7.97,31.5c0,6.62-1.76,13.25-5.26,19.87
		c-3.51,6.62-9.97,12.9-17.66,19.35c-2.49,2.09-14.75,11.45-23.48,14.09c-3.39,1.57-7.32,2.43-12.52,4.7l-29.91,8.67
		c16.29,2.62,30.08,6.64,41.4,12.06c3.39,1.57,6.79,2.88,10.18,3.93c3.17,2.1,6.22,3.98,9.16,5.64c2.94,1.66,5.65,6.41,8.14,7.98
		c6.11,5.59,7.27,7.36,9.76,11.55l5.43,8.13c1.58,2.45,3.45,8.04,5.6,16.78c2.15,8.74,3.22,16.52,3.22,23.33
		c0,5.6-0.23,9.44-0.68,11.54l-7.12,17.04c-6.67,17.32-17.86,30.78-23.73,37.34c-5.88,6.55-16.38,11.42-31.52,20.86
		c-17.15,4.51-15.59,6.08-35.93,7.64c-6.55,1.92-14.1,1.79-32.87,1.57h-2.53c-1.52,0-3.05,0.24-4.47,0.81
		c-1.88,0.76-5.18,0.76-5.52,0.76c-3.13,0-5.08,0-7.83,0c-3.13,0-5.75,0.31-10.05,0.31c-9.04,0-28.02-0.7-56.95-2.09
		c-10.63-0.35-18.99-1.14-25.08-2.36l-28.82-0.79l-4.07,0.26l-14.24,1.57l-10.85-0.52l-20,1.83c-8.82,1.39-19.41,2.09-25.5,2.09
		c-1.81,0-3.84-0.09-6.1-0.26L-636.34,471.6z M-476.92,310c-1.14,9.27-5.15,25.44-12.01,48.52c-2.06,6.47-4.8,19.59-8.23,39.34
		c-9.15,30.77-13.73,41.14-13.73,49.88c0,8.4,2.66,14.12,7.98,17.18c5.32,3.06,21.23,4.59,47.72,4.59c21.51,0,24.65-2.19,40.73-6.55
		c2.94-1.22,5.77-2.28,8.49-3.15c10.41-3.49,15.59-9.49,21.93-14.04c9.32-9.8,10.21-13.52,15.65-21.91
		c3.13-6.26,9.97-16.73,10.88-19.7c3.85-13.99,5.77-26.05,5.77-36.19c0-4.37-0.79-9.22-2.37-14.56c-1.58-5.33-4.07-11.14-7.45-17.44
		c-5.87-5.42-7.31-9.63-9.96-12.27c-1.57-1.57-1.57-3.13-7.83-7.83c-4.97-1.22-7.6-4.99-11.89-6.39c-2.94-0.52-5.08-0.87-6.44-1.05
		c-6.78-1.22-11.3-1.92-13.56-2.1l-5.35-0.52l-15.93,0.52h-13.55l-29.82,1.84L-476.92,310z M-466.02,295.33
		c25.91-0.35,43.03-1.22,51.37-2.61c17.57-2.79,16.39-6.75,27.77-11.89c11.38-5.14,14.82-9.29,24.73-18.17
		c3.13-6.26,5.61-9.2,9.89-18.7c4.28-9.5,6.42-17.82,6.42-24.96c0-7.32-1.36-14.11-4.07-20.39c-1.81-4.18-6.91-9.01-11.87-16.99
		c-5.08-8.18-11.34-12.87-16.03-16c-7.23-2.96-9.42-3.08-27.73-6.22l-6.1,0.26l-11.13-0.52c-7.46,0-13.45,1.48-17.97,4.44
		c-2.94,2.27-4.97,6.71-6.1,13.33c-2.43,18.82-5.84,35.63-10.24,50.45l-10.25,38.18l-1.37,13.59c-0.46,4.01-1.03,7.58-1.71,10.72
		l-0.34,2.09C-470.75,292.8-469.17,293.94-466.02,295.33z"/>
</g>
<path d="M-827.11,463.04c36.44-29.28,30.58-13.76,40.51-6.14c17.74,13.62,32.3-1.72,54.6-2.76c3.37-0.6,15.37,0.09,18.78,1.57
	c7.53,3.97,16.18,10.88,10.96,18.78c1.4,2.04,2.63,2.72,3.37,5.81c-1.34,0.55-1.98,2.12-4.01,2.17l-37.82,2.43l-78.43,0.77"/>
<path d="M-780.03,54.49c3.39-16.58,20.23-50.39,20.12-67.27c-0.02-3.57,1-7.15,1.33-11.05c0.66-5.52,3.43-11.06,0.94-16.56
	c-2.14-5.5,2.74-8.46,5.17-12.04c0.69-1.3,2.45-0.66,3.5-0.02c2.1,0.64,4.21,1.92,6.66,1.58c0.68-2.28-2.91-13.61-6.41-13.58
	c-2.74-0.24-0.64-15.48-2.01-27.06c-0.34-2.87,3.79-6.15,5.22-3.64c7.74,13.48,22.52,12.06,23.95,12.54
	c16.65,5.63-18.33,7.75-16.21,10.33c2.82,3.23,9.75,13.53,13.62,15.45c5.97,3.21,9.86,8.7,12.35,14.53
	c8.53,19.75,17.69,1.26,24.12,21.67c3.22,11.02,5.47,60.92,9.05,71.93c1.07,3.56-10.37,7.13-8.6,11.01
	c-1.44-6.48,2.02-12.67,0.57-19.16c-1.45-7.78-0.1-15.58-0.51-23.69c-0.79-12.98-10.33-53.72-11.47-66.7
	c-1.13-11.35,0-1.57-3.13-10.96c-4.43-13.28-12.38-23.99-6.26-26.61c9.89-4.24,2.33-10.29,1.91-21c-0.36-1.62,10.02-5.31,11.06-6.94
	c2.78-3.59,15.56-14.65,20.83-12.08c1.4-0.66,5.34,9.86,7.44,9.52c0.35,0.65,1.41,0.97,1.41,1.94l1.17,18.17l-0.45,37.66
	c-0.27,11.36,0.5,22.72,1.98,34.07c2.6,23.36,6.05,41.54,11.96,64.17c6.35,24.34,17.82,35.7,22.26,56.37
	c0.48,2.25,21.94,39.3,22.31,41.57c0.37,2.59-42.07-5.49-44.51-4.5c-4.19,1.33-20.56-20.89-24.07-22.16
	c-2.44,0.99-2.43,3.26-3.82,4.57c-4.87,4.58-5.57,5.23-12.23,2.68c-3.86-1.27-8.07-2.87-9.85-7.4c-0.35-0.65-1.06-1.29-2.46-0.96
	c-0.68,2.93,0.74,6.16-0.99,8.77c-1.75,0.34-2.45-0.31-2.81-1.28c-2.48-4.85-4.96-9.38-8.49-13.58c-3.18-3.88-4.61-8.41-5.69-12.95
	c-6.81-23.65-13.63-50.55-20.09-74.21c-1.8-7.46-3.6,7-6.46-1.74c-2.75,7.48-3.41-7.93-4.41-1.43c-1.68,10.07,0.81,23.27-1.22,33.02
	c-2.03,11.05-11.12,35.2-16.17,48.48c-3.76,9.89-23.12,16.46-45.43,18.9"/>
<path d="M-669.13-110.49c-12.99,1.85-21.81-1.73-27.37-1.99c-15.09-0.6-21.8,1.29-36.85,2.07c-2.27,0.41-10.38,0.01-12.69-0.96
	c-5.1-2.61-10.93-0.92-7.44-6.2c-0.95-1.35-1.78-1.8-2.3-3.85c0.9-0.37,1.33-1.42,2.7-1.46l25.52-1.78l52.95-0.85"/>
<g>
	<path class="st0" d="M65.52,95.37c0.81,1.63,1.61,3.15,2.77,4.56c1.04,1.3,1.5,2.82,1.84,4.34c2.19,7.93,4.38,16.94,6.46,24.87
		c0.58,2.5,1.15,4.99,2.08,7.93c0.92-2.5,1.15-4.67,1.5-6.84c0.58-3.37,0.81-6.73,1.5-9.99c0.69-3.69,1.38-7.38,2.31-10.97
		c0.69-3.04,1.15-6.62,2.65-9.45c0.81-1.41,2.08-2.61,3.69-2.28l2.77,0.54c0.69,0.11,1.15-3.16,1.73-2.72
		c0.98,0.22,0.98-1.87,0.98-2.22c0-0.11-0.93-4.66-0.7-4.87c0.58,0.22,1.39,2.44,2.44,3.48c0.7,0.35,0.84,1.46,1.42,1.68
		c0.35,0.11,2.67,3.92,3.01,4.02c4.04,1.19,5.66,5.63,5.77,8.78c0,0.43-0.12,0.87-0.12,1.19c0.58,5.65-0.46,11.29-0.58,16.83
		c0,4.45,0.12,9.01,0.58,13.46c0.46,3.69,0.46,7.6,0.92,11.29c0.58,4.89-0.58,9.77-0.35,14.66c0.12,2.06-0.12,4.02-0.24,6.08
		c-0.23,2.28,0.12,4.35-2.42,3.81c-0.58,0.33-0.58,0.26-0.7,0.7c-0.46,0.87-2.3,0.49-3.34,0.27c-2.54-0.33-7.93,2.32-9.89,1.12
		c-2.31-1.41,0.2-7.31,0.2-9.38c-0.12-3.15-0.35-6.19,0-9.34c0.23-1.95,0-3.8-0.23-5.65c-0.69-6.84-0.58-13.57-1.15-20.41
		c-0.58-6.41-0.46-12.81-1.38-19.22l-0.35-0.87c-0.92,1.3-0.57,2.61-0.92,3.8c-0.81,2.71-1.96,5.43-2.54,8.14
		c-1.15,5.54-2.54,10.97-2.54,16.61c0,1.19-0.35,2.39-0.46,3.69c-0.23,1.85-1.15,3.69-0.35,5.54c0.69,1.85-0.92,2.82-1.73,4.02
		c-0.23,0.43-0.81,0.22-1.15,0c-0.69-0.22-1.38-0.65-2.19-0.54c-0.23,0.76-0.23,1.41,0.92,1.41c1.15,0.11,1.5,1.63,2.08,2.28
		c-0.46,0.65-0.92,0.54-1.61,0.65c-1.96,0.22-4.27,0.11-4.96-0.76c-0.92-1.09-1.15-0.98-2.42-1.63c-1.96-1.09-3.23-2.93-4.04-4.89
		c-2.77-6.62-5.42-13.36-7.49-20.2c-1.04-3.69-2.08-7.49-3.23-11.18c-0.35-1.19-0.69-2.39-1.27-3.69c0.46,2.17-0.69,4.24-0.23,6.41
		c0.46,2.61,0,5.21,0.12,7.93c0.23,4.34,0.12,8.9,0.46,13.25c0.35,3.8,0.58,7.6,1.15,11.29c0.35,2.17,0.69,4.34,0.46,6.52
		c-0.35,3.58,1.74,6.58,1.86,10.16c0.12,0.54-1.28,0.39-1.62,0.93c-0.92,1.19-1.03,6.98-2.76,6.11c-0.46,0.22-1.74-3.31-2.43-3.2
		c-0.12-0.22-0.46-0.33-0.46-0.65l-0.35-6.08l0.23-12.6c0.12-3.8-0.12-7.6-0.58-11.4c-0.81-7.82-0.92-15.75-0.69-23.56
		c0.12-5.54-0.12-12.16,0-17.81c0.12-0.76,0-1.63-0.12-2.39c-0.12-0.87,0.46-1.3,1.27-1.63c1.38-0.43,2.65-0.33,3.8,0.11
		c0.81-0.33,0.81-1.09,1.27-1.52c1.61-1.52,1.84-1.74,4.03-0.87c1.27,0.43,2.65,0.98,3.23,2.5c0.12,0.22,0.35,0.43,0.81,0.33
		c0.23-0.98-0.23-2.06,0.35-2.93C65.17,94.82,65.4,95.04,65.52,95.37z M98.49,123.92c1.04-2.17,0.23-5.75-0.93-7.06
		C99.79,112.05,98.71,128.74,98.49,123.92z"/>
</g>
<g>
	<path class="st0" d="M95.02,173.74c0.85-0.19,1.68-0.32,2.49-0.38c0.8-0.06,2.23-0.15,2.88-0.26c0.6-0.04,1.08-0.08,1.43-0.12
		c3.57-0.19,5.81-0.49,6.74-0.88c0.93-0.39,1.65-1.02,2.15-1.88c1.31-2.62,2.13-4.67,2.49-6.16c0.15-0.85,0.28-1.44,0.38-1.75
		c0.1-0.47,0.56-0.9,0.66-1.64c0.36-0.88,0.27-0.77,0.32-1.16c0.15-1.05,0.5-2.51,1.06-4.4c0.55-1.88,1.03-4.03,1.43-6.44
		c0.2-1.36,0.35-2.21,0.45-2.56c1.11-4.15,1.88-7.36,2.34-9.61c1.96-9.44,3.39-14.22,4.3-17.13c0.3-2.21,0.88-5.16,1.73-8.85
		l0.15-2.89c0-0.65-0.3-1.19-0.91-1.62c-1.16-0.81-3-1.35-5.52-1.62c-2.52-0.27-4.52-0.4-5.98-0.4l-0.91,0.06l-1.29-0.41
		c-0.05-0.47-0.08-0.82-0.08-1.05l0.08-0.64c3.08-0.08,4.79-0.12,5.15-0.12c6.86,0,11.48,0.04,13.85,0.12
		c1.66,0.04,2.99,0.06,4,0.06c1.11,0,2.89-0.03,5.35-0.1c1.61-0.05,2.82-0.08,3.62-0.08c7.54,0,9.29,0.27,12.2,0.81
		c3.97,0.7,7.06,1.8,9.27,3.31c3.27,2.25,4.79,4.33,5.98,6.25c1.18,1.92,1.77,4.25,1.77,7.01c0,1.47-0.39,2.95-1.17,4.42
		c-0.78,1.47-2.22,2.87-3.93,4.3c-0.55,0.47-3.28,2.55-5.22,3.13c-0.75,0.35-1.63,0.54-2.79,1.04l-6.65,1.93
		c3.62,0.58,6.69,1.48,9.21,2.68c0.75,0.35,1.51,0.64,2.26,0.87c0.7,0.47,1.38,0.88,2.04,1.25c0.65,0.37,1.26,1.43,1.81,1.78
		c1.36,1.24,1.62,1.64,2.17,2.57l1.21,1.81c0.35,0.54,0.77,1.79,1.25,3.73c0.48,1.94,0.72,3.67,0.72,5.19c0,1.25-0.05,2.1-0.15,2.57
		l-1.58,3.79c-1.48,3.85-3.97,6.85-5.28,8.31c-1.31,1.46-3.64,2.54-7.01,4.64c-3.82,1-3.47,1.35-7.99,1.7
		c-1.46,0.43-3.14,0.4-7.31,0.35h-0.56c-0.34,0-0.68,0.05-0.99,0.18c-0.42,0.17-1.15,0.17-1.23,0.17c-0.7,0-1.13,0-1.74,0
		c-0.7,0-1.28,0.07-2.23,0.07c-2.01,0-6.23-0.16-12.67-0.47c-2.36-0.08-4.22-0.25-5.58-0.52l-6.41-0.17l-0.9,0.06l-3.17,0.35
		l-2.41-0.12l-4.45,0.41c-1.96,0.31-4.32,0.47-5.67,0.47c-0.4,0-0.86-0.02-1.36-0.06L95.02,173.74z M130.48,137.79
		c-0.25,2.06-1.15,5.66-2.67,10.79c-0.46,1.44-1.07,4.36-1.83,8.75c-2.04,6.85-3.05,9.15-3.05,11.1c0,1.87,0.59,3.14,1.77,3.82
		c1.18,0.68,4.72,1.02,10.61,1.02c4.78,0,5.48-0.49,9.06-1.46c0.65-0.27,1.28-0.51,1.89-0.7c2.32-0.78,3.47-2.11,4.88-3.12
		c2.07-2.18,2.27-3.01,3.48-4.87c0.7-1.39,2.22-3.72,2.42-4.38c0.86-3.11,1.28-5.79,1.28-8.05c0-0.97-0.18-2.05-0.53-3.24
		c-0.35-1.19-0.9-2.48-1.66-3.88c-1.31-1.21-1.63-2.14-2.22-2.73c-0.35-0.35-0.35-0.7-1.74-1.74c-1.11-0.27-1.69-1.11-2.64-1.42
		c-0.65-0.12-1.13-0.19-1.43-0.23c-1.51-0.27-2.51-0.43-3.02-0.47l-1.19-0.12l-3.54,0.12h-3.01l-6.63,0.41L130.48,137.79z
		 M132.9,134.53c5.76-0.08,9.57-0.27,11.43-0.58c3.91-0.62,3.65-1.5,6.18-2.64c2.53-1.14,3.3-2.07,5.5-4.04
		c0.7-1.39,1.25-2.05,2.2-4.16c0.95-2.11,1.43-3.96,1.43-5.55c0-1.63-0.3-3.14-0.9-4.54c-0.4-0.93-1.54-2-2.64-3.78
		c-1.13-1.82-2.52-2.86-3.57-3.56c-1.61-0.66-2.1-0.68-6.17-1.38l-1.36,0.06l-2.48-0.12c-1.66,0-2.99,0.33-4,0.99
		c-0.65,0.5-1.11,1.49-1.36,2.97c-0.54,4.19-1.3,7.93-2.28,11.22l-2.28,8.49l-0.31,3.02c-0.1,0.89-0.23,1.69-0.38,2.38l-0.08,0.47
		C131.85,133.96,132.2,134.22,132.9,134.53z"/>
</g>
<path class="st0" d="M52.58,171.83c8.11-6.51,6.8-3.06,9.01-1.37c3.95,3.03,7.19-0.38,12.14-0.61c0.75-0.13,3.42,0.02,4.18,0.35
	c1.67,0.88,3.6,2.42,2.44,4.18c0.31,0.45,0.58,0.6,0.75,1.29c-0.3,0.12-0.44,0.47-0.89,0.48l-8.41,0.54l-17.45,0.17"/>
<path class="st0" d="M63.05,80.95c0.75-3.69,4.5-11.21,4.47-14.96c-0.01-0.79,0.22-1.59,0.3-2.46c0.15-1.23,0.76-2.46,0.21-3.68
	c-0.48-1.22,0.61-1.88,1.15-2.68c0.15-0.29,0.54-0.15,0.78,0c0.47,0.14,0.94,0.43,1.48,0.35c0.15-0.51-0.65-3.03-1.43-3.02
	c-0.61-0.05-0.14-3.44-0.45-6.02c-0.08-0.64,0.84-1.37,1.16-0.81c1.72,3,5.01,2.68,5.33,2.79c3.7,1.25-4.08,1.72-3.61,2.3
	c0.63,0.72,2.17,3.01,3.03,3.44c1.33,0.71,2.19,1.94,2.75,3.23c1.9,4.39,3.93,0.28,5.37,4.82c0.72,2.45,1.22,13.55,2.01,16
	c0.24,0.79-2.31,1.59-1.91,2.45c-0.32-1.44,0.45-2.82,0.13-4.26c-0.32-1.73-0.02-3.47-0.11-5.27c-0.17-2.89-2.3-11.95-2.55-14.84
	c-0.25-2.53,0-0.35-0.7-2.44c-0.98-2.95-2.75-5.34-1.39-5.92c2.2-0.94,0.52-2.29,0.43-4.67c-0.08-0.36,2.23-1.18,2.46-1.54
	c0.62-0.8,3.46-3.26,4.63-2.69c0.31-0.15,1.19,2.19,1.65,2.12c0.08,0.14,0.31,0.21,0.31,0.43l0.26,4.04l-0.1,8.38
	c-0.06,2.53,0.11,5.05,0.44,7.58c0.58,5.2,1.35,9.24,2.66,14.27c1.41,5.41,3.96,7.94,4.95,12.54c0.11,0.5,4.88,8.74,4.96,9.25
	c0.08,0.58-9.36-1.22-9.9-1c-0.93,0.29-4.57-4.65-5.35-4.93c-0.54,0.22-0.54,0.73-0.85,1.02c-1.08,1.02-1.24,1.16-2.72,0.6
	c-0.86-0.28-1.79-0.64-2.19-1.65c-0.08-0.14-0.24-0.29-0.55-0.21c-0.15,0.65,0.16,1.37-0.22,1.95c-0.39,0.07-0.55-0.07-0.62-0.28
	c-0.55-1.08-1.1-2.09-1.89-3.02c-0.71-0.86-1.02-1.87-1.26-2.88C74.66,84,73.14,78.01,71.7,72.75c-0.4-1.66-0.8,1.56-1.44-0.39
	c-0.61,1.66-0.76-1.76-0.98-0.32c-0.37,2.24,0.18,5.18-0.27,7.35c-0.45,2.46-2.47,7.83-3.6,10.78c-0.84,2.2-5.14,3.66-10.1,4.2"/>
<path class="st0" d="M87.72,44.26c-2.89,0.41-4.85-0.38-6.09-0.44c-3.36-0.13-4.85,0.29-8.2,0.46c-0.51,0.09-2.31,0-2.82-0.21
	c-1.13-0.58-2.43-0.21-1.65-1.38c-0.21-0.3-0.4-0.4-0.51-0.86c0.2-0.08,0.3-0.32,0.6-0.32l5.68-0.4l11.78-0.19"/>
</svg>
